<svg width="37" height="37" viewBox="0 0 37 37" fill="none" xmlns="http://www.w3.org/2000/svg">
<g filter="url(#filter0_d_3055_12431)">
<mask id="path-1-outside-1_3055_12431" maskUnits="userSpaceOnUse" x="3.50293" y="2.30078" width="30" height="29" fill="black">
<rect fill="white" x="3.50293" y="2.30078" width="30" height="29"/>
<path d="M20.8578 5.62417C14.3943 4.15235 8.32213 7.81799 6.88773 14.3102C6.13744 17.7061 6.43478 20.521 8.21948 23.0563C8.36927 23.2692 8.42969 23.5335 8.38096 23.7906L7.53861 27.5338C7.41255 28.1993 7.98998 28.7824 8.64468 28.6511L12.0198 26.9238C12.232 26.8813 12.4518 26.9145 12.6427 27.0177C13.6247 27.5481 14.7041 27.9574 15.8651 28.2217C22.3286 29.6936 28.4008 26.0279 29.8352 19.5357C31.2696 13.0434 27.3213 7.09599 20.8578 5.62417Z"/>
</mask>
<path d="M20.8578 5.62417C14.3943 4.15235 8.32213 7.81799 6.88773 14.3102C6.13744 17.7061 6.43478 20.521 8.21948 23.0563C8.36927 23.2692 8.42969 23.5335 8.38096 23.7906L7.53861 27.5338C7.41255 28.1993 7.98998 28.7824 8.64468 28.6511L12.0198 26.9238C12.232 26.8813 12.4518 26.9145 12.6427 27.0177C13.6247 27.5481 14.7041 27.9574 15.8651 28.2217C22.3286 29.6936 28.4008 26.0279 29.8352 19.5357C31.2696 13.0434 27.3213 7.09599 20.8578 5.62417Z" fill="url(#paint0_linear_3055_12431)"/>
<path d="M8.21948 23.0563L10.3578 21.5524L10.3571 21.5514L8.21948 23.0563ZM8.38096 23.7906L10.9314 24.3646L10.9411 24.3212L10.9494 24.2774L8.38096 23.7906ZM7.53861 27.5338L4.9882 26.9599L4.9784 27.0034L4.97009 27.0472L7.53861 27.5338ZM8.64468 28.6511L9.15882 31.2143L9.51357 31.1431L9.83566 30.9783L8.64468 28.6511ZM12.0198 26.9238L11.5067 24.3605L11.1514 24.4316L10.8288 24.5967L12.0198 26.9238ZM12.6427 27.0177L11.3997 29.3174L11.4003 29.3178L12.6427 27.0177ZM15.8651 28.2217L15.2847 30.7707L15.8651 28.2217ZM21.4382 3.07523C13.6208 1.29511 6.09557 5.77819 4.3351 13.7463L9.44036 14.8742C10.5487 9.85778 15.1678 7.00959 20.2774 8.17311L21.4382 3.07523ZM4.3351 13.7463C3.47709 17.6297 3.75558 21.2566 6.08184 24.5611L10.3571 21.5514C9.11398 19.7855 8.79779 17.7825 9.44036 14.8742L4.3351 13.7463ZM6.08118 24.5601C5.83715 24.2132 5.72552 23.7627 5.8125 23.3038L10.9494 24.2774C11.1339 23.3044 10.9014 22.3253 10.3578 21.5524L6.08118 24.5601ZM5.83055 23.2167L4.9882 26.9599L10.089 28.1077L10.9314 24.3646L5.83055 23.2167ZM4.97009 27.0472C4.51095 29.471 6.62232 31.723 9.15882 31.2143L8.13055 26.088C9.35765 25.8418 10.3141 26.9275 10.1071 28.0204L4.97009 27.0472ZM9.83566 30.9783L13.2108 29.2509L10.8288 24.5967L7.45371 26.324L9.83566 30.9783ZM12.5329 29.4871C12.1445 29.5649 11.7433 29.5032 11.3997 29.3174L13.8857 24.7179C13.1604 24.3259 12.3195 24.1978 11.5067 24.3605L12.5329 29.4871ZM11.4003 29.3178C12.593 29.9621 13.8955 30.4544 15.2847 30.7707L16.4455 25.6728C15.5128 25.4604 14.6563 25.1342 13.8852 24.7176L11.4003 29.3178ZM15.2847 30.7707C23.102 32.5508 30.6273 28.0677 32.3878 20.0996L27.2825 18.9717C26.1742 23.9881 21.5551 26.8363 16.4455 25.6728L15.2847 30.7707ZM32.3878 20.0996C34.1452 12.1456 29.2439 4.85269 21.4382 3.07523L20.2774 8.17311C25.3986 9.33929 28.394 13.9412 27.2825 18.9717L32.3878 20.0996Z" fill="white" mask="url(#path-1-outside-1_3055_12431)"/>
</g>
<path fill-rule="evenodd" clip-rule="evenodd" d="M14.9395 16.1521V14.776C14.9395 12.8761 16.4797 11.3359 18.3796 11.3359C20.2795 11.3359 21.8197 12.8761 21.8197 14.776V16.1521C22.5797 16.1521 23.1958 16.7682 23.1958 17.5281V20.9682C23.1958 21.7282 22.5797 22.3443 21.8197 22.3443H14.9395C14.1796 22.3443 13.5635 21.7282 13.5635 20.9682V17.5281C13.5635 16.7682 14.1796 16.1521 14.9395 16.1521ZM20.4437 14.776V16.1521H16.3156V14.776C16.3156 13.6361 17.2397 12.712 18.3796 12.712C19.5196 12.712 20.4437 13.6361 20.4437 14.776Z" fill="url(#paint1_linear_3055_12431)"/>
<defs>
<filter id="filter0_d_3055_12431" x="0.302134" y="0.491506" width="36.0305" height="35.7727" filterUnits="userSpaceOnUse" color-interpolation-filters="sRGB">
<feFlood flood-opacity="0" result="BackgroundImageFix"/>
<feColorMatrix in="SourceAlpha" type="matrix" values="0 0 0 0 0 0 0 0 0 0 0 0 0 0 0 0 0 0 127 0" result="hardAlpha"/>
<feOffset dy="1.39152"/>
<feGaussianBlur stdDeviation="1.79376"/>
<feComposite in2="hardAlpha" operator="out"/>
<feColorMatrix type="matrix" values="0 0 0 0 0.0836556 0 0 0 0 0.02875 0 0 0 0 0.15 0 0 0 0.1 0"/>
<feBlend mode="normal" in2="BackgroundImageFix" result="effect1_dropShadow_3055_12431"/>
<feBlend mode="normal" in="SourceGraphic" in2="effect1_dropShadow_3055_12431" result="shape"/>
</filter>
<linearGradient id="paint0_linear_3055_12431" x1="1.639" y1="-1.20575" x2="31.2969" y2="-0.293908" gradientUnits="userSpaceOnUse">
<stop stop-color="#40BEBE"/>
<stop offset="1" stop-color="#2361E6"/>
</linearGradient>
<linearGradient id="paint1_linear_3055_12431" x1="19.1126" y1="16.8409" x2="22.6701" y2="21.8432" gradientUnits="userSpaceOnUse">
<stop stop-color="white"/>
<stop offset="1" stop-color="white" stop-opacity="0"/>
</linearGradient>
</defs>
</svg>
