<svg width="56" height="56" viewBox="0 0 56 56" fill="none" xmlns="http://www.w3.org/2000/svg">
<g id="Group 1073714572">
<g id="Subtract" filter="url(#filter0_d_3322_59359)">
<mask id="path-1-outside-1_3322_59359" maskUnits="userSpaceOnUse" x="4.54858" y="3.00537" width="46" height="45" fill="black">
<rect fill="white" x="4.54858" y="3.00537" width="46" height="45"/>
<path d="M31.545 8.50197C21.6408 6.24183 12.3362 11.8708 10.1382 21.8404C8.98853 27.0551 9.44416 31.3777 12.1789 35.2708C12.4084 35.5978 12.501 36.0037 12.4264 36.3985L11.1356 42.1465C10.9424 43.1684 11.8272 44.0639 12.8305 43.8623L18.0023 41.2098C18.3274 41.1446 18.6643 41.1955 18.9568 41.354C20.4615 42.1685 22.1155 42.797 23.8945 43.2029C33.7987 45.4631 43.1033 39.8341 45.3013 29.8645C47.4993 19.895 41.4493 10.7621 31.545 8.50197Z"/>
</mask>
<path d="M31.545 8.50197C21.6408 6.24183 12.3362 11.8708 10.1382 21.8404C8.98853 27.0551 9.44416 31.3777 12.1789 35.2708C12.4084 35.5978 12.501 36.0037 12.4264 36.3985L11.1356 42.1465C10.9424 43.1684 11.8272 44.0639 12.8305 43.8623L18.0023 41.2098C18.3274 41.1446 18.6643 41.1955 18.9568 41.354C20.4615 42.1685 22.1155 42.797 23.8945 43.2029C33.7987 45.4631 43.1033 39.8341 45.3013 29.8645C47.4993 19.895 41.4493 10.7621 31.545 8.50197Z" fill="url(#paint0_linear_3322_59359)"/>
<path d="M12.1789 35.2708L15.4648 32.9647L15.4638 32.9632L12.1789 35.2708ZM12.4264 36.3985L16.3432 37.278L16.3581 37.2115L16.3708 37.1445L12.4264 36.3985ZM11.1356 42.1465L7.21876 41.2669L7.20378 41.3337L7.19107 41.4009L11.1356 42.1465ZM12.8305 43.8623L13.6216 47.7979L14.1672 47.6882L14.6624 47.4342L12.8305 43.8623ZM18.0023 41.2098L17.2127 37.2738L16.6663 37.3835L16.1703 37.6378L18.0023 41.2098ZM18.9568 41.354L17.0448 44.8838L17.0457 44.8843L18.9568 41.354ZM23.8945 43.2029L23.0014 47.1167L23.8945 43.2029ZM32.4381 4.58821C20.4465 1.85174 8.91445 8.74562 6.218 20.9761L14.0584 22.7046C15.758 14.996 22.8351 10.6319 30.6519 12.4157L32.4381 4.58821ZM6.218 20.9761C4.90367 26.9376 5.33003 32.5047 8.89402 37.5783L15.4638 32.9632C13.5583 30.2506 13.0734 27.1726 14.0584 22.7046L6.218 20.9761ZM8.89301 37.5768C8.51927 37.0443 8.34915 36.3545 8.48192 35.6525L16.3708 37.1445C16.6529 35.6529 16.2976 34.1513 15.4648 32.9647L8.89301 37.5768ZM8.50953 35.5189L7.21876 41.2669L15.0524 43.0261L16.3432 37.278L8.50953 35.5189ZM7.19107 41.4009C6.49011 45.1092 9.7152 48.5832 13.6216 47.7979L12.0393 39.9266C13.9393 39.5447 15.3947 41.2276 15.0801 42.8921L7.19107 41.4009ZM14.6624 47.4342L19.8343 44.7818L16.1703 37.6378L10.9985 40.2903L14.6624 47.4342ZM18.7919 45.1457C18.1925 45.266 17.574 45.1704 17.0448 44.8838L20.8687 37.8242C19.7546 37.2207 18.4622 37.0232 17.2127 37.2738L18.7919 45.1457ZM17.0457 44.8843C18.8744 45.8742 20.8713 46.6306 23.0014 47.1167L24.7876 39.2892C23.3598 38.9633 22.0486 38.4629 20.8678 37.8237L17.0457 44.8843ZM23.0014 47.1167C34.993 49.8531 46.5251 42.9593 49.2215 30.7288L41.3811 29.0002C39.6816 36.7089 32.6045 41.073 24.7876 39.2892L23.0014 47.1167ZM49.2215 30.7288C51.9126 18.5228 44.4091 7.31998 32.4381 4.58821L30.6519 12.4157C38.4894 14.2042 43.086 21.2672 41.3811 29.0002L49.2215 30.7288Z" fill="white" mask="url(#path-1-outside-1_3322_59359)"/>
</g>
<g id="Group 1073714426">
<path id="Vector" d="M33.3446 27.6471C33.852 27.1066 33.6377 26.223 32.939 25.975L29.2629 24.6704C28.7193 24.4775 28.4409 23.8751 28.6461 23.3361L30.7713 17.7537C31.1719 16.7012 29.8322 15.8635 29.0614 16.6845L21.9556 24.2526C21.4482 24.7931 21.6625 25.6767 22.3612 25.9247L26.0373 27.2293C26.5809 27.4222 26.8593 28.0246 26.6541 28.5636L24.5289 34.146C24.1283 35.1985 25.4679 36.0362 26.2388 35.2152L33.3446 27.6471Z" fill="#7E4D1F"/>
</g>
</g>
<defs>
<filter id="filter0_d_3322_59359" x="0.026639" y="0.620007" width="55.2507" height="54.9357" filterUnits="userSpaceOnUse" color-interpolation-filters="sRGB">
<feFlood flood-opacity="0" result="BackgroundImageFix"/>
<feColorMatrix in="SourceAlpha" type="matrix" values="0 0 0 0 0 0 0 0 0 0 0 0 0 0 0 0 0 0 127 0" result="hardAlpha"/>
<feOffset dy="2.13683"/>
<feGaussianBlur stdDeviation="2.7545"/>
<feComposite in2="hardAlpha" operator="out"/>
<feColorMatrix type="matrix" values="0 0 0 0 0.0836556 0 0 0 0 0.02875 0 0 0 0 0.15 0 0 0 0.2 0"/>
<feBlend mode="normal" in2="BackgroundImageFix" result="effect1_dropShadow_3322_59359"/>
<feBlend mode="normal" in="SourceGraphic" in2="effect1_dropShadow_3322_59359" result="shape"/>
</filter>
<linearGradient id="paint0_linear_3322_59359" x1="27.6501" y1="8.00537" x2="46.1334" y2="37.1871" gradientUnits="userSpaceOnUse">
<stop stop-color="#E6AA2B"/>
<stop offset="0.489583" stop-color="#FFE389"/>
<stop offset="0.958333" stop-color="#FAD623"/>
</linearGradient>
</defs>
</svg>
